<?xml version="1.0" encoding="UTF-8" standalone="no"?>
<svg
   viewBox="0 0 448 512"
   version="1.1"
   id="svg1"
   sodipodi:docname="dna.svg"
   inkscape:version="1.3.2 (091e20e, 2023-11-25)"
   xmlns:inkscape="http://www.inkscape.org/namespaces/inkscape"
   xmlns:sodipodi="http://sodipodi.sourceforge.net/DTD/sodipodi-0.dtd"
   xmlns="http://www.w3.org/2000/svg"
   xmlns:svg="http://www.w3.org/2000/svg">
  <defs
     id="defs1" />
  <sodipodi:namedview
     id="namedview1"
     pagecolor="#ffffff"
     bordercolor="#000000"
     borderopacity="0.25"
     inkscape:showpageshadow="2"
     inkscape:pageopacity="0.0"
     inkscape:pagecheckerboard="0"
     inkscape:deskcolor="#d1d1d1"
     inkscape:zoom="0.4609375"
     inkscape:cx="224.54237"
     inkscape:cy="164.88136"
     inkscape:window-width="1312"
     inkscape:window-height="675"
     inkscape:window-x="0"
     inkscape:window-y="25"
     inkscape:window-maximized="0"
     inkscape:current-layer="svg1" />
  <!--!Font Awesome Free 6.5.2 by @fontawesome - https://fontawesome.com License - https://fontawesome.com/license/free Copyright 2024 Fonticons, Inc.-->
  <path
     d="m 368.07263,30.372881 c 12.72858,0 23.01211,12.724576 23.01211,28.474576 0,53.211863 -21.78959,95.656783 -49.9075,130.449153 -20.1356,24.91525 -44.94553,47.60593 -69.97119,68.87288 l -1.79782,1.51271 c -8.55763,7.20763 -17.11526,14.32627 -25.52906,21.26695 v 0 0 0 l -1.1506,0.88983 c -4.31477,3.55932 -8.55763,7.02966 -12.80049,10.58898 -15.02978,12.45763 -29.34043,24.64831 -42.64431,36.92797 h 85.36054 c -7.04746,-6.58474 -14.45448,-13.08051 -22.07724,-19.66525 l 5.03389,-4.18221 2.15739,-1.77966 c 10.85884,-8.98729 22.22106,-18.33051 33.58329,-28.11864 17.97821,16.10593 35.16538,33.19068 49.90751,51.34322 28.046,34.88135 49.83559,77.32627 49.83559,130.53813 0,15.75 -10.28353,28.47458 -23.01211,28.47458 -12.72857,0 -23.0121,-12.72458 -23.0121,-28.47458 H 114.93947 c 0,15.75 -10.28354,28.47458 -23.012109,28.47458 -12.728572,0 -23.012107,-12.72458 -23.012107,-28.47458 0,-53.21186 21.789588,-95.65678 49.907506,-130.44915 20.13559,-24.91525 44.94552,-47.60593 69.97118,-68.87288 C 163.76828,236.90254 138.95835,214.30085 118.82276,189.29661 90.704842,154.50424 68.915254,112.05932 68.915254,58.847457 c 0,-15.75 10.283535,-28.474576 23.012107,-28.474576 12.728569,0 23.012109,12.724576 23.012109,28.474576 h 230.12106 c 0,-15.75 10.28353,-28.474576 23.0121,-28.474576 z M 312.4121,372.0678 H 147.58789 c -7.26319,9.4322 -13.37578,18.95339 -18.33777,28.47457 H 330.74987 C 325.8598,391.02119 319.74721,381.5 312.4121,372.0678 Z M 147.58789,144.27119 H 312.4121 c 7.2632,-9.52119 13.37579,-18.95339 18.33777,-28.47458 H 129.25012 c 4.89007,9.52119 11.00266,18.95339 18.33777,28.47458 z m 39.83971,42.71186 c 13.23196,12.27966 27.61453,24.47034 42.64431,36.92797 15.02978,-12.45763 29.34043,-24.64831 42.64431,-36.92797 h -85.36053 z"
     id="path1"
     style="stroke-width:0.799939" />
  <path
     style="fill:#808080;fill-opacity:1;stroke:none;stroke-width:29.5165;stroke-linecap:round;stroke-linejoin:round"
     d="M 65.119849,478.97946 C 56.858868,470.37829 55.152157,464.121 56.254842,446.47789 59.833804,389.21393 88.45643,338.77877 149.32276,282.48544 c 12.19115,-11.27521 23.31726,-21.35888 24.72468,-22.40817 2.37184,-1.76828 2.37184,-2.04728 0,-3.81556 -1.40742,-1.04929 -12.64045,-11.21676 -24.96228,-22.59441 C 108.72706,196.40177 82.195548,160.78493 68.831263,125.93163 60.812106,105.01812 57.366116,89.262492 56.222385,68.281778 55.442943,53.983615 55.695986,51.982752 59.041018,45.994222 66.752745,32.188101 77.482501,28.175972 88.25637,35.069857 93.91233,38.68894 99.36473,48.457063 99.37349,54.986498 l 0.006,4.343579 h 116.03565 116.03562 l 0.97222,-6.015006 c 1.33538,-8.261776 11.83098,-20.949052 17.56595,-21.234013 11.10749,-0.551915 17.96754,3.226666 22.47874,12.381523 6.56658,13.325937 2.54279,50.939688 -8.5482,79.907459 -18.95557,49.50872 -48.5532,83.85739 -132.70788,154.01034 -18.87773,15.73682 -39.83999,33.48123 -46.58281,39.43202 l -12.25967,10.8196 22.10495,0.53635 c 12.15773,0.29497 31.71587,0.29497 43.46253,0 l 21.35757,-0.53635 -10.51023,-9.50159 -10.51023,-9.50159 19.62491,-16.21844 19.62491,-16.21844 14.28746,13.46588 c 53.99812,50.89312 83.72889,107.85774 83.70798,160.38582 -0.009,22.90236 -6.95805,32.99198 -22.7223,32.99198 -6.3789,0 -8.03296,-0.92962 -13.34157,-7.49835 -3.33293,-4.12411 -6.49739,-10.20511 -7.03211,-13.51336 l -0.97222,-6.015 H 215.41494 c -115.93264,0 -116.03562,0.004 -116.03562,3.95682 0,18.70502 -22.322525,30.44225 -34.259471,18.01373 z M 316.8502,398.61189 c -0.6233,-1.32721 -4.58654,-7.84257 -8.80719,-14.4786 l -7.67394,-12.06549 h -83.80733 -83.80732 l -4.74655,6.27406 c -5.59301,7.39292 -13.02712,19.61512 -13.02712,21.41749 0,0.69611 45.67561,1.26564 101.50136,1.26564 80.7654,0 101.26984,-0.49298 100.36809,-2.4131 z m -80.20773,-190.6823 c 11.09598,-9.58196 20.59774,-18.26912 21.11503,-19.30479 0.6029,-1.20706 -14.63464,-1.8611 -42.44549,-1.82191 l -43.38605,0.0611 4.5477,4.28242 c 5.36916,5.05596 38.94227,34.01467 39.56529,34.12729 0.23596,0.0426 9.50753,-7.76222 20.60352,-17.34418 z m 72.66753,-77.65438 8.85047,-13.99598 -101.05835,-0.49681 c -55.58209,-0.27324 -101.39542,-0.0797 -101.80741,0.43008 -0.88804,1.09883 6.02363,12.94231 12.71316,21.78462 l 4.74655,6.27407 h 83.85255 83.85256 z"
     id="path2" />
</svg>
