<?xml version="1.0" encoding="UTF-8" standalone="no"?>
<svg
   viewBox="0 0 496 512"
   version="1.1"
   id="svg1"
   sodipodi:docname="github-mid.svg"
   inkscape:version="1.3.2 (091e20e, 2023-11-25)"
   xmlns:inkscape="http://www.inkscape.org/namespaces/inkscape"
   xmlns:sodipodi="http://sodipodi.sourceforge.net/DTD/sodipodi-0.dtd"
   xmlns="http://www.w3.org/2000/svg"
   xmlns:svg="http://www.w3.org/2000/svg">
  <defs
     id="defs1" />
  <sodipodi:namedview
     id="namedview1"
     pagecolor="#ffffff"
     bordercolor="#000000"
     borderopacity="0.25"
     inkscape:showpageshadow="2"
     inkscape:pageopacity="0.0"
     inkscape:pagecheckerboard="0"
     inkscape:deskcolor="#d1d1d1"
     inkscape:zoom="1.0729879"
     inkscape:cx="248.37185"
     inkscape:cy="258.15761"
     inkscape:window-width="1392"
     inkscape:window-height="795"
     inkscape:window-x="48"
     inkscape:window-y="25"
     inkscape:window-maximized="0"
     inkscape:current-layer="svg1" />
  <!--!Font Awesome Free 6.5.2 by @fontawesome - https://fontawesome.com License - https://fontawesome.com/license/free Copyright 2024 Fonticons, Inc.-->
  <path
     d="m 165.9,397.4 c 0,2 -2.3,3.6 -5.2,3.6 -3.3,0.3 -5.6,-1.3 -5.6,-3.6 0,-2 2.3,-3.6 5.2,-3.6 3,-0.3 5.6,1.3 5.6,3.6 z m -31.1,-4.5 c -0.7,2 1.3,4.3 4.3,4.9 2.6,1 5.6,0 6.2,-2 0.6,-2 -1.3,-4.3 -4.3,-5.2 -2.6,-0.7 -5.5,0.3 -6.2,2.3 z m 44.2,-1.7 c -2.9,0.7 -4.9,2.6 -4.6,4.9 0.3,2 2.9,3.3 5.9,2.6 2.9,-0.7 4.9,-2.6 4.6,-4.6 -0.3,-1.9 -3,-3.2 -5.9,-2.9 z M 244.8,8 C 106.1,8 0,113.3 0,252 c 0,110.9 69.8,205.8 169.5,239.2 12.8,2.3 17.3,-5.6 17.3,-12.1 0,-6.2 -0.3,-40.4 -0.3,-61.4 0,0 -70,15 -84.7,-29.8 0,0 -11.4,-29.1 -27.8,-36.6 0,0 -22.9,-15.7 1.6,-15.4 0,0 24.9,2 38.6,25.8 21.9,38.6 58.6,27.5 72.9,20.9 2.3,-16 8.8,-27.1 16,-33.7 -55.9,-6.2 -112.3,-14.3 -112.3,-110.5 0,-27.5 7.6,-41.3 23.6,-58.9 -2.6,-6.5 -11.1,-33.3 2.6,-67.9 20.9,-6.5 69,27 69,27 20,-5.6 41.5,-8.5 62.8,-8.5 21.3,0 42.8,2.9 62.8,8.5 0,0 48.1,-33.6 69,-27 13.7,34.7 5.2,61.4 2.6,67.9 16,17.7 25.8,31.5 25.8,58.9 0,96.5 -58.9,104.2 -114.8,110.5 9.2,7.9 17,22.9 17,46.4 0,33.7 -0.3,75.4 -0.3,83.6 0,6.5 4.6,14.4 17.3,12.1 C 428.2,457.8 496,362.9 496,252 496,113.3 383.5,8 244.8,8 Z M 97.2,352.9 c -1.3,1 -1,3.3 0.7,5.2 1.6,1.6 3.9,2.3 5.2,1 1.3,-1 1,-3.3 -0.7,-5.2 -1.6,-1.6 -3.9,-2.3 -5.2,-1 z m -10.8,-8.1 c -0.7,1.3 0.3,2.9 2.3,3.9 1.6,1 3.6,0.7 4.3,-0.7 0.7,-1.3 -0.3,-2.9 -2.3,-3.9 -2,-0.6 -3.6,-0.3 -4.3,0.7 z m 32.4,35.6 c -1.6,1.3 -1,4.3 1.3,6.2 2.3,2.3 5.2,2.6 6.5,1 1.3,-1.3 0.7,-4.3 -1.3,-6.2 -2.2,-2.3 -5.2,-2.6 -6.5,-1 z m -11.4,-14.7 c -1.6,1 -1.6,3.6 0,5.9 1.6,2.3 4.3,3.3 5.6,2.3 1.6,-1.3 1.6,-3.9 0,-6.2 -1.4,-2.3 -4,-3.3 -5.6,-2 z"
     id="path1"
     style="display:none;fill:none;stroke:none" />
  <path
     style="fill:#666666;stroke:none;stroke-width:4.33444;stroke-linecap:round;stroke-linejoin:round"
     d="M 163.13526,488.60738 C 103.94501,466.39742 56.656337,424.20754 28.097161,368.12948 13.77802,340.01278 5.4975184,312.02638 1.6304632,278.67746 0.23181893,266.61575 0.22208563,237.46513 1.6126001,225.17837 5.650776,189.49655 15.780477,157.53922 32.275082,128.44393 36.330492,121.29048 46.139857,106.71959 51.562327,99.794535 87.874388,53.42029 140.99533,22.10912 200.364,12.086102 c 16.42227,-2.7725185 24.84096,-3.435913 43.90883,-3.4600244 27.24044,-0.034446 48.04848,2.6897834 71.70798,9.3881454 41.85229,11.849014 77.51744,32.362899 107.68723,61.939549 17.2019,16.863708 30.27337,33.874578 41.73029,54.306728 33.31902,59.42082 39.46947,132.61382 16.85749,200.61118 -23.80027,71.57069 -77.06949,127.19677 -146.67366,153.1631 -11.16987,4.167 -16.163,4.0111 -20.8243,-0.65021 -3.94745,-3.94745 -3.87503,-2.86108 -3.4142,-51.21491 0.2926,-30.70085 0.22266,-44.59427 -0.24725,-49.11764 -1.63812,-15.76863 -5.81615,-26.77913 -13.2466,-34.90924 l -2.82375,-3.08963 3.86731,-0.40014 c 42.61611,-4.40928 66.81063,-12.82262 83.61095,-29.07461 11.20301,-10.83737 18.18874,-23.74903 22.5811,-41.73642 2.90367,-11.89097 3.74541,-20.2891 3.7382,-37.29632 -0.006,-13.63291 -0.13594,-15.74405 -1.26594,-20.53141 -3.01601,-12.77759 -9.38842,-24.22934 -20.20573,-36.31137 -2.75354,-3.07547 -3.50383,-4.28528 -3.26022,-5.25694 0.17405,-0.69417 0.94935,-3.73723 1.7229,-6.76236 3.98602,-15.58817 3.29882,-33.90641 -1.93261,-51.51607 -2.60693,-8.77527 -2.79774,-9.0518 -6.5709,-9.52323 -12.03746,-1.50398 -34.9923,7.63008 -60.50187,24.07455 l -5.4474,3.51161 -3.72717,-1.02421 c -5.39746,-1.4832 -19.91928,-4.29311 -27.23699,-5.27024 -28.05789,-3.74654 -59.00641,-2.21047 -86.2166,4.2792 -3.89728,0.9295 -7.43634,1.69001 -7.86458,1.69001 -0.42824,0 -3.30337,-1.65388 -6.38918,-3.67528 -18.32164,-12.00188 -39.50805,-21.56445 -51.62714,-23.30212 -5.03368,-0.72174 -10.5994,-0.34439 -11.50638,0.78012 -1.01927,1.26373 -4.59198,13.2516 -5.84225,19.60306 -1.58521,8.05308 -2.11741,21.39573 -1.17624,29.48947 0.5778,4.96898 1.98846,11.54705 3.7593,17.53019 0.25316,0.85533 -0.69782,2.37123 -3.74152,5.96416 -15.799472,18.65042 -20.485249,34.5885 -18.932076,64.39506 1.762704,33.82751 9.996016,56.14117 26.515686,71.86199 16.06491,15.28805 36.94903,22.83045 76.22567,27.52926 l 8.39083,1.00383 -3.08652,3.78816 c -5.49097,6.73922 -9.54674,16.32662 -11.94903,28.24617 -0.26526,1.31614 -0.98449,1.76794 -5.32696,3.34628 -8.98625,3.26618 -14.42327,4.24773 -23.36943,4.2189 -9.29797,-0.03 -14.12177,-1.0719 -21.00726,-4.5375 -8.8263,-4.44245 -14.48872,-10.0147 -22.39493,-22.03828 -7.68549,-11.68791 -13.57275,-17.11476 -23.730921,-21.87504 -7.021502,-3.29038 -13.099251,-4.69316 -18.99348,-4.3838 -7.569447,0.3973 -9.665979,2.72611 -6.82242,7.57827 1.666727,2.84406 5.227542,5.96986 10.747804,9.43479 9.130741,5.73113 18.663391,18.98352 25.424287,35.34509 3.30646,8.00176 5.52466,11.61885 9.75727,15.91066 9.16896,9.2972 22.44708,14.438 41.10029,15.9125 8.0769,0.63847 21.08751,0.11663 28.85578,-1.15737 1.89225,-0.31033 3.72567,-0.56573 4.07426,-0.56756 0.45003,-0.002 0.75006,8.93332 1.03475,30.81749 0.44724,34.3787 0.40443,34.88776 -3.22972,38.40507 -4.60891,4.46076 -10.13203,4.7595 -19.94172,1.07861 z"
     id="path2" />
  <path
     style="fill:#f9f9f9;stroke:none;stroke-width:4.33444;stroke-linecap:round;stroke-linejoin:round"
     d=""
     id="path5" />
  <path
     style="fill:#666666;stroke:none;stroke-width:4.33444;stroke-linecap:round;stroke-linejoin:round"
     d="m 177.16391,398.27367 c -3.10581,-1.29178 -3.13876,-3.94184 -0.0722,-5.81167 2.19797,-1.34023 3.34425,-1.38452 5.60295,-0.2165 1.35146,0.69887 1.68794,1.21613 1.54841,2.38029 -0.30601,2.55309 -4.5068,4.71776 -7.07911,3.64788 z"
     id="path10" />
  <path
     style="fill:#666666;stroke:none;stroke-width:4.33444;stroke-linecap:round;stroke-linejoin:round"
     d="m 156.62991,399.47855 c -2.26991,-2.50822 -0.21693,-5.2589 3.925,-5.2589 4.28936,0 6.52625,3.36497 3.59958,5.41489 -1.80869,1.26686 -6.32159,1.1733 -7.52458,-0.15599 z"
     id="path11" />
  <path
     style="fill:#666666;stroke:none;stroke-width:4.33444;stroke-linecap:round;stroke-linejoin:round"
     d="m 137.49513,396.81364 c -2.4995,-1.08677 -3.14871,-3.51416 -1.33308,-4.98437 3.59957,-2.91476 10.74206,1.07685 8.26219,4.61736 -1.01008,1.44208 -4.08227,1.6048 -6.92911,0.36701 z"
     id="path12" />
  <path
     style="fill:#666666;stroke:none;stroke-width:4.33444;stroke-linecap:round;stroke-linejoin:round"
     d="m 122.99653,388.08318 c -1.84627,-0.66936 -4.58728,-3.85389 -4.58728,-5.32954 0,-4.78426 7.09302,-3.06597 8.37153,2.02801 0.31851,1.26907 0.13189,1.82288 -0.89428,2.65382 -1.36856,1.1082 -1.52383,1.143 -2.88997,0.64771 z"
     id="path13" />
  <path
     style="fill:#666666;stroke:none;stroke-width:4.33444;stroke-linecap:round;stroke-linejoin:round"
     d="m 109.74013,373.2884 c -1.80347,-0.98008 -3.58079,-4.45945 -3.08151,-6.03253 0.4467,-1.40743 2.65135,-2.01367 4.23695,-1.16509 1.37102,0.73375 2.9264,3.45663 2.9264,5.12302 0,1.09859 -1.40012,2.96021 -2.19125,2.91353 -0.21401,-0.0126 -1.06477,-0.39014 -1.89059,-0.83893 z"
     id="path14" />
  <path
     style="fill:#666666;stroke:none;stroke-width:4.33444;stroke-linecap:round;stroke-linejoin:round"
     d="m 98.129907,357.508 c -1.745885,-2.07487 -1.87155,-2.98386 -0.589717,-4.2657 1.857949,-1.85794 6.19019,1.25636 5.84851,4.2043 -0.14171,1.22261 -0.51329,1.54126 -1.96168,1.68227 -1.41433,0.1377 -2.101723,-0.20023 -3.297113,-1.62087 z"
     id="path15" />
  <path
     style="fill:#666666;stroke:none;stroke-width:4.33444;stroke-linecap:round;stroke-linejoin:round"
     d=""
     id="path16" />
  <path
     style="fill:#666666;stroke:none;stroke-width:4.33444;stroke-linecap:round;stroke-linejoin:round"
     d="m 87.748535,347.55558 c -1.850077,-1.85008 -1.380487,-3.22263 1.102555,-3.22263 3.50412,0 5.237849,4.09493 1.897169,4.48096 -1.067155,0.12331 -2.016176,-0.27479 -2.999724,-1.25833 z"
     id="path17" />
</svg>
