<?xml version="1.0" encoding="UTF-8" standalone="no"?>
<!-- Created with Inkscape (http://www.inkscape.org/) -->

<svg
   width="9084.2236mm"
   height="7020.606mm"
   viewBox="0 0 9084.2236 7020.606"
   version="1.1"
   id="svg1"
   inkscape:version="1.3.2 (091e20e, 2023-11-25)"
   sodipodi:docname="halloween-pattern-square.svg"
   inkscape:export-filename="halloween-pattern-square.png"
   inkscape:export-xdpi="25.444111"
   inkscape:export-ydpi="25.444111"
   xmlns:inkscape="http://www.inkscape.org/namespaces/inkscape"
   xmlns:sodipodi="http://sodipodi.sourceforge.net/DTD/sodipodi-0.dtd"
   xmlns="http://www.w3.org/2000/svg"
   xmlns:svg="http://www.w3.org/2000/svg">
  <sodipodi:namedview
     id="namedview1"
     pagecolor="#ffffff"
     bordercolor="#000000"
     borderopacity="0.25"
     inkscape:showpageshadow="2"
     inkscape:pageopacity="0.0"
     inkscape:pagecheckerboard="0"
     inkscape:deskcolor="#d1d1d1"
     inkscape:document-units="mm"
     inkscape:zoom="0.014928528"
     inkscape:cx="21401.976"
     inkscape:cy="13464.154"
     inkscape:window-width="1440"
     inkscape:window-height="795"
     inkscape:window-x="0"
     inkscape:window-y="25"
     inkscape:window-maximized="0"
     inkscape:current-layer="layer2"
     inkscape:export-bgcolor="#00000000" />
  <defs
     id="defs1" />
  <g
     inkscape:label="white bg"
     inkscape:groupmode="layer"
     id="layer1"
     transform="translate(-3.1205444,0.79843432)" />
  <g
     inkscape:groupmode="layer"
     id="layer2"
     inkscape:label="black bg"
     transform="translate(-3.1205444,0.79843432)">
    <rect
       style="fill:#000000;fill-opacity:1;stroke:none;stroke-width:12.7863;stroke-linecap:square;stroke-miterlimit:3.6;stroke-opacity:1"
       id="rect1"
       width="9084.2236"
       height="7020.606"
       x="3.1205444"
       y="-0.79843432" />
  </g>
  <g
     inkscape:groupmode="layer"
     id="layer5"
     inkscape:label="purple"
     transform="translate(-3.1205444,0.79843432)" />
  <g
     inkscape:groupmode="layer"
     id="layer4"
     inkscape:label="orange"
     transform="translate(-3.1205444,0.79843432)" />
  <g
     inkscape:groupmode="layer"
     id="layer3"
     inkscape:label="outlines"
     transform="translate(-3.1205444,0.79843432)">
    <g
       id="g4"
       transform="matrix(38.958426,0,0,40.616542,592.48411,-1576.7229)"
       inkscape:label="moon">
      <path
         style="fill:#ffffff;fill-opacity:1;stroke:none;stroke-width:0.260278;stroke-linecap:square;stroke-miterlimit:3.6"
         d="m 43.51438,52.282999 c -8.663704,1.343602 -17.713357,9.197637 -22.185004,18.152826 -4.471647,8.955189 -8.05458,20.84094 -1.891746,30.933905 6.162835,10.09296 24.998317,13.21837 36.287103,13.89247 11.288788,0.67409 21.164174,-1.68684 27.176676,-7.49838 6.012501,-5.81153 7.723769,-15.771644 5.81455,-25.209646 C 86.806739,73.116176 83.314352,64.02927 75.062396,58.164049 66.810438,52.298827 52.178085,50.939397 43.51438,52.282999 Z"
         id="path3"
         sodipodi:nodetypes="zzzzzzzz" />
      <path
         style="fill:#000000;fill-opacity:1;stroke:none;stroke-width:0.4;stroke-linecap:square;stroke-miterlimit:3.6"
         d="m 36.107366,68.022626 c 0.999557,0.640693 10.627092,6.716115 17.727623,7.659964 1.177419,0.156509 0.323633,-16.898464 3.620864,-2.351038 0.196221,0.86573 1.226601,0.817442 1.139071,-0.194386 -1.172628,-13.555368 3.410261,0.550557 4.502427,-0.198412 6.510346,-4.464608 12.782706,-12.596371 12.782706,-12.596371 l 20.297777,21.669258 c 0,0 -11.528004,-11.022496 -15.521593,-8.511164 -3.993589,2.511332 0.56688,10.58833 0.56688,10.58833 0,0 -5.422527,-7.655725 -8.349233,-6.793638 -2.926706,0.862087 -2.335645,7.17146 -2.335645,7.17146 0,0 -4.793262,-3.689984 -7.78069,-2.422723 -2.987428,1.267261 -2.501096,9.692358 -2.501096,9.692358 0,0 -1.57615,-8.272976 -4.170447,-8.504547 -2.594297,-0.231571 -4.095117,2.71523 -4.095117,2.71523 0,0 -1.205612,-5.771106 -4.24009,-5.504794 -3.034478,0.266312 -5.243897,10.041612 -5.243897,10.041612 0,0 -2.377211,-8.871967 -6.372429,-9.305323 -3.995218,-0.433356 -9.353123,8.787738 -9.353123,8.787738 z"
         id="path4"
         sodipodi:nodetypes="csssscczczczczczczcc" />
      <path
         style="fill:#000000;fill-opacity:1;stroke:none;stroke-width:0.302139;stroke-linecap:square;stroke-miterlimit:3.6"
         d="m 26.676085,94.688487 c 0.674503,0.567819 6.953406,4.839599 11.996243,6.034743 0.83621,0.19818 2.340263,-13.452307 2.625691,-1.624104 0.01689,0.70014 1.733194,0.28797 1.673621,-0.51 -0.761017,-10.194032 1.717955,1.08487 2.55593,0.56516 4.995156,-3.098028 10.299086,-7.974557 10.299086,-7.974557 l 13.093492,18.343661 c 0,0 -7.357863,-9.24534 -10.574209,-7.68604 -3.216346,1.5593 -0.330087,8.36741 -0.330087,8.36741 0,0 -3.244392,-6.31482 -5.533548,-5.87756 -2.289156,0.43726 -2.180228,5.49392 -2.180228,5.49392 0,0 -3.232133,-4.93709 -5.59565,-4.19657 -2.363517,0.74052 -2.474962,7.46691 -2.474962,7.46691 0,0 -0.424227,-6.60976 -2.407792,-6.95745 -1.983565,-0.34769 -2.969026,3.66992 -2.969026,3.66992 0,0 -0.315569,-4.59151 -2.666967,-4.60158 -2.351398,-0.0101 -4.472666,7.56692 -4.472666,7.56692 0,0 -0.934168,-7.13638 -3.936276,-7.72786 -3.002108,-0.59148 -7.34178,6.31847 -7.34178,6.31847 z"
         id="path4-4"
         sodipodi:nodetypes="csssscczczczczczczcc" />
      <path
         style="fill:#000000;fill-opacity:1;stroke:none;stroke-width:0.248093;stroke-linecap:square;stroke-miterlimit:3.6"
         d="m 83.96935,92.917477 c 0.446528,0.564854 4.766807,5.947655 8.671648,7.780773 0.647505,0.30398 3.856789,-8.731579 1.893777,0.58722 -0.1162,0.5516 1.640359,0.59368 1.73979,-0.0422 1.270342,-8.122901 1.485484,-0.29722 2.267751,-0.55544 4.663104,-1.539267 9.933884,-5.336344 9.933884,-5.336344 l 7.30844,16.701464 -7.22599,-7.90267 -1.82403,6.49764 -3.43684,-5.58933 -2.80445,3.91711 -3.799845,-4.28322 -3.412035,5.41066 -0.678351,-5.87969 -3.111225,2.34765 -1.327951,-4.07981 -5.065427,5.13381 c 0,0 0.501535,-5.72999 -1.786109,-6.75514 -2.287644,-1.02515 -7.181507,3.64541 -7.181507,3.64541 z"
         id="path4-4-6"
         sodipodi:nodetypes="csssscccccccccccczcc" />
    </g>
    <g
       id="g1"
       inkscape:label="skull"
       transform="matrix(27.869198,0,0,27.869198,224.4638,807.38476)">
      <path
         style="fill:#ffffff;fill-opacity:1;stroke:none;stroke-width:0.4;stroke-linecap:square;stroke-miterlimit:3.6;stroke-opacity:1"
         d="m 117.93861,120.15338 c -35.567397,-8.49935 -71.079279,-8.60423 -79.569875,33.5031 -8.490595,42.10733 41.061429,24.19332 48.270912,31.77653 7.209483,7.58321 -1.797485,5.58604 3.747058,11.20444 5.54454,5.6184 25.736825,4.38198 30.086675,0.25716 3.0782,-2.91895 -6.97527,-21.48133 -1.50061,-23.443 2.01604,-0.72239 -5.33557,-0.18411 -5.68737,0.87492 -1.20337,3.62255 13.72003,25.723 -9.8942,23.04565 -23.614223,-2.67736 -2.80929,-5.8739 -10.83708,-13.99638 -8.027786,-8.12248 -18.142696,4.40791 -42.540118,-12.37999 -21.886803,-15.06034 16.015552,-48.67088 54.229238,-41.26959 1.29652,0.25111 -12.822843,27.18332 -1.35182,8.77922 0.27471,-0.44076 6.76839,8.78492 1.11173,-2.02868 -0.80629,-1.54134 1.61211,-3.87869 3.22988,-6.68293 0,0 2.8521,1.107 5.15846,1.96809 29.1256,10.87424 17.52563,52.90829 8.73857,47.31712 -8.24946,-5.24909 2.10641,4.76115 5.67412,0.96604 2.81155,-2.99076 26.70182,-51.39235 -8.86557,-59.8917 z"
         id="path1-4"
         sodipodi:nodetypes="zzzzssszzssssssssz" />
      <path
         style="fill:#fb7702;fill-opacity:1;stroke:none;stroke-width:0.4;stroke-linecap:square;stroke-miterlimit:3.6;stroke-opacity:1"
         d="m 97.570444,187.10798 -4.506267,15.08619 9.012533,2.15517 -3.13479,-16.45766 z"
         id="path5" />
      <path
         style="fill:#fb7702;fill-opacity:1;stroke:none;stroke-width:0.4;stroke-linecap:square;stroke-miterlimit:3.6;stroke-opacity:1"
         d="m 104.62373,189.655 -0.58777,14.49842 H 109.13 l -1.5674,-14.30249 z"
         id="path6" />
      <path
         style="fill:#fb7702;fill-opacity:1;stroke:none;stroke-width:0.4;stroke-linecap:square;stroke-miterlimit:3.6;stroke-opacity:1"
         d="m 110.69739,188.67538 4.31034,17.82914 6.07366,-7.24921 -9.6003,-11.9514 z"
         id="path7" />
      <path
         style="fill:#ffffff;fill-opacity:1;stroke:none;stroke-width:0.4;stroke-linecap:square;stroke-miterlimit:3.6;stroke-opacity:1"
         d="m 76.998361,151.64563 c -5.600376,3.11843 -5.328074,8.72874 -3.134792,12.93102 2.193282,4.20228 8.86496,6.3179 14.10657,5.48589 5.24161,-0.83201 11.271802,-3.91713 9.992152,-10.77585 -1.279654,-6.85872 -15.363554,-10.75949 -20.96393,-7.64106 z"
         id="path8"
         sodipodi:nodetypes="zzzzz" />
      <path
         style="fill:#000000;fill-opacity:1;stroke:none;stroke-width:0.333522;stroke-linecap:square;stroke-miterlimit:3.6;stroke-opacity:1"
         d="m 79.423527,153.28751 c -4.576888,2.65284 -4.35435,7.42552 -2.561898,11.0004 1.792452,3.57487 7.244857,5.37462 11.528545,4.66683 4.283687,-0.70779 9.211842,-3.33229 8.166053,-9.16699 -1.045794,-5.8347 -12.555813,-9.15308 -17.1327,-6.50024 z"
         id="path8-4"
         sodipodi:nodetypes="zzzzz" />
      <path
         style="fill:#ffffff;fill-opacity:1;stroke:none;stroke-width:0.4;stroke-linecap:square;stroke-miterlimit:3.6;stroke-opacity:1"
         d="m 109.52184,149.8823 c -3.20329,2.46701 -4.10884,7.14476 -2.74295,10.38401 1.36589,3.23925 5.3534,5.30573 9.01253,5.09403 3.65913,-0.2117 8.23817,-3.64146 9.40439,-6.85736 1.16622,-3.2159 0.78808,-6.32265 -2.15518,-8.62068 -2.94326,-2.29803 -10.3155,-2.46701 -13.51879,0 z"
         id="path9"
         sodipodi:nodetypes="zzzzzz" />
      <path
         style="fill:#000000;fill-opacity:1;stroke:none;stroke-width:0.323554;stroke-linecap:square;stroke-miterlimit:3.6;stroke-opacity:1"
         d="m 110.41909,152.68408 c -2.59632,1.9915 -3.33029,5.76763 -2.22321,8.38253 1.10708,2.6149 4.33903,4.28307 7.30482,4.11218 2.9658,-0.1709 6.67719,-2.93959 7.62243,-5.53563 0.94525,-2.59605 0.63876,-5.10399 -1.74681,-6.95908 -2.38556,-1.8551 -8.3609,-1.99151 -10.95723,0 z"
         id="path9-8"
         sodipodi:nodetypes="zzzzzz" />
      <ellipse
         style="fill:#ffffff;fill-opacity:1;stroke:none;stroke-width:0.4;stroke-linecap:square;stroke-miterlimit:3.6;stroke-opacity:1"
         id="path10"
         ry="5.3879261"
         rx="6.8573604"
         cy="161.73575"
         cx="86.990517" />
      <path
         style="fill:#fb7702;fill-opacity:1;stroke:none;stroke-width:0.501533;stroke-linecap:square;stroke-miterlimit:3.6;stroke-opacity:1"
         id="path12"
         sodipodi:type="arc"
         sodipodi:cx="87.18644"
         sodipodi:cy="161.83371"
         sodipodi:rx="5.0940375"
         sodipodi:ry="5.0940423"
         sodipodi:start="0"
         sodipodi:end="6.2774175"
         sodipodi:arc-type="arc"
         d="m 92.280477,161.83371 a 5.0940375,5.0940423 0 0 1 -5.086692,5.09404 5.0940375,5.0940423 0 0 1 -5.101362,-5.07935 5.0940375,5.0940423 0 0 1 5.071981,-5.10868 5.0940375,5.0940423 0 0 1 5.115988,5.06461"
         sodipodi:open="true" />
      <path
         style="fill:#000000;fill-opacity:1;stroke:none;stroke-width:0.4;stroke-linecap:square;stroke-miterlimit:3.6;stroke-opacity:1"
         id="path13"
         sodipodi:type="arc"
         sodipodi:cx="87.025604"
         sodipodi:cy="161.69232"
         sodipodi:rx="1.1755475"
         sodipodi:ry="1.2735097"
         sodipodi:start="0"
         sodipodi:end="6.2774175"
         sodipodi:open="true"
         sodipodi:arc-type="arc"
         d="m 88.201152,161.69232 a 1.1755475,1.2735097 0 0 1 -1.173853,1.27351 1.1755475,1.2735097 0 0 1 -1.177237,-1.26984 1.1755475,1.2735097 0 0 1 1.170457,-1.27717 1.1755475,1.2735097 0 0 1 1.180613,1.26616" />
    </g>
    <g
       id="g20"
       transform="matrix(42.336249,0,0,41.966582,358.92447,-353.63177)">
      <path
         style="fill:#ffffff;fill-opacity:1;stroke:none;stroke-width:0.4;stroke-linecap:square;stroke-miterlimit:3.6"
         d="m 125.40388,24.368876 26.01172,-0.273807 c 0,0 -5.114,13.214938 -3.01188,19.440338 2.10213,6.2254 13.25112,4.245307 17.52369,9.309461 4.27257,5.064154 2.41069,18.065336 -6.57138,24.368876 -8.98207,6.30354 -37.89683,6.767776 -46.5473,-1.916654 -8.65047,-8.68443 -6.30586,-21.493597 -1.36903,-27.654569 4.93683,-6.160972 13.39383,0.282077 16.97606,-4.654729 3.58223,-4.936806 -3.01188,-18.618916 -3.01188,-18.618916 z"
         id="path11"
         sodipodi:nodetypes="cczzzzzzc" />
      <path
         style="fill:#000000;fill-opacity:1;stroke:none;stroke-width:0.4;stroke-linecap:square;stroke-miterlimit:3.6"
         d="m 133.3443,23.82126 c 4.5865,-4.255417 9.5503,-3.226178 12.86896,0.821423 3.31866,4.047601 -4.71659,15.719069 -2.46427,21.356994 2.25232,5.637925 11.95251,3.67246 13.69039,9.583267 1.73788,5.910807 1.98744,13.14874 -6.02377,18.071301 -8.01121,4.922561 -32.39218,3.643712 -38.60687,-3.5595 -6.21469,-7.203212 -3.56023,-17.036008 1.09523,-21.356992 4.65546,-4.320984 13.06037,4.576869 18.3451,-0.273807 5.28473,-4.850676 -3.49127,-20.387269 1.09523,-24.642686 z"
         id="path14"
         sodipodi:nodetypes="zzzzzzzzz" />
      <path
         style="fill:#fb7702;fill-opacity:1;stroke:none;stroke-width:0.4;stroke-linecap:square;stroke-miterlimit:3.6"
         d="m 131.97526,19.166532 15.33323,0.821423 -4.10712,16.154649 -8.48803,-0.821423 z"
         id="path15" />
      <path
         style="fill:#000000;fill-opacity:1;stroke:none;stroke-width:0.278689;stroke-linecap:square;stroke-miterlimit:3.6"
         id="path16"
         sodipodi:type="arc"
         sodipodi:cx="141.73151"
         sodipodi:cy="25.181471"
         sodipodi:rx="0.89303398"
         sodipodi:ry="0.82521391"
         sodipodi:start="0"
         sodipodi:end="6.2774175"
         sodipodi:open="true"
         sodipodi:arc-type="arc"
         d="m 142.62454,25.181471 a 0.89303398,0.82521391 0 0 1 -0.89175,0.825213 0.89303398,0.82521391 0 0 1 -0.89431,-0.822833 0.89303398,0.82521391 0 0 1 0.88916,-0.827586 0.89303398,0.82521391 0 0 1 0.89689,0.820446" />
      <path
         style="fill:#000000;fill-opacity:1;stroke:none;stroke-width:0.278689;stroke-linecap:square;stroke-miterlimit:3.6"
         id="path16-5"
         sodipodi:type="arc"
         sodipodi:cx="143.10992"
         sodipodi:cy="28.524399"
         sodipodi:rx="0.89303398"
         sodipodi:ry="0.82521391"
         sodipodi:start="0"
         sodipodi:end="6.2774175"
         sodipodi:open="true"
         sodipodi:arc-type="arc"
         d="m 144.00296,28.524399 a 0.89303398,0.82521391 0 0 1 -0.89175,0.825213 0.89303398,0.82521391 0 0 1 -0.89432,-0.822833 0.89303398,0.82521391 0 0 1 0.88917,-0.827586 0.89303398,0.82521391 0 0 1 0.89688,0.820446" />
      <path
         style="fill:#000000;fill-opacity:1;stroke:none;stroke-width:0.201846;stroke-linecap:square;stroke-miterlimit:3.6"
         id="path16-9"
         sodipodi:type="arc"
         sodipodi:cx="144.67076"
         sodipodi:cy="22.352888"
         sodipodi:rx="0.62175381"
         sodipodi:ry="0.62175375"
         sodipodi:start="0"
         sodipodi:end="6.2774175"
         sodipodi:open="true"
         sodipodi:arc-type="arc"
         d="m 145.29251,22.352888 a 0.62175381,0.62175375 0 0 1 -0.62085,0.621753 0.62175381,0.62175375 0 0 1 -0.62265,-0.61996 0.62175381,0.62175375 0 0 1 0.61906,-0.623541 0.62175381,0.62175375 0 0 1 0.62443,0.618162" />
      <path
         style="fill:#ffffff;fill-opacity:1;stroke:none;stroke-width:0.46588;stroke-linecap:square;stroke-miterlimit:3.6"
         id="path19"
         sodipodi:type="arc"
         sodipodi:cx="134.24754"
         sodipodi:cy="54.193081"
         sodipodi:rx="18.338541"
         sodipodi:ry="1.8808762"
         sodipodi:start="0"
         sodipodi:end="6.2774175"
         sodipodi:arc-type="arc"
         d="m 152.58608,54.193081 a 18.338541,1.8808762 0 0 1 -18.31209,1.880874 18.338541,1.8808762 0 0 1 -18.36491,-1.87545 18.338541,1.8808762 0 0 1 18.25913,-1.886283 18.338541,1.8808762 0 0 1 18.41757,1.87001"
         sodipodi:open="true" />
      <path
         style="fill:#000000;fill-opacity:1;stroke:none;stroke-width:0.329823;stroke-linecap:square;stroke-miterlimit:3.6"
         id="path19-9"
         sodipodi:type="arc"
         sodipodi:cx="132.49229"
         sodipodi:cy="54.239243"
         sodipodi:rx="16.340111"
         sodipodi:ry="1.0579929"
         sodipodi:start="0"
         sodipodi:end="6.2774175"
         sodipodi:arc-type="arc"
         d="m 148.83241,54.239243 a 16.340111,1.0579929 0 0 1 -16.31655,1.057991 16.340111,1.0579929 0 0 1 -16.36361,-1.05494 16.340111,1.0579929 0 0 1 16.26936,-1.061034 16.340111,1.0579929 0 0 1 16.41052,1.05188"
         sodipodi:open="true" />
      <path
         style="fill:#ffffff;fill-opacity:1;stroke:none;stroke-width:0.254269;stroke-linecap:square;stroke-miterlimit:3.6"
         id="path20"
         sodipodi:type="arc"
         sodipodi:cx="144.82745"
         sodipodi:cy="67.241318"
         sodipodi:rx="6.1128469"
         sodipodi:ry="5.6426272"
         sodipodi:start="0"
         sodipodi:end="6.2774175"
         sodipodi:open="true"
         sodipodi:arc-type="arc"
         d="m 150.9403,67.241318 a 6.1128469,5.6426272 0 0 1 -6.10403,5.642621 6.1128469,5.6426272 0 0 1 -6.12164,-5.626348 6.1128469,5.6426272 0 0 1 6.08638,-5.658848 6.1128469,5.6426272 0 0 1 6.13919,5.610029" />
      <path
         style="fill:#fb7702;fill-opacity:1;stroke:none;stroke-width:0.188309;stroke-linecap:square;stroke-miterlimit:3.6"
         id="path20-9"
         sodipodi:type="arc"
         sodipodi:cx="145.1956"
         sodipodi:cy="68.142227"
         sodipodi:rx="4.3495259"
         sodipodi:ry="4.349525"
         sodipodi:start="0"
         sodipodi:end="6.2774175"
         sodipodi:open="true"
         sodipodi:arc-type="arc"
         d="m 149.54513,68.142227 a 4.3495259,4.349525 0 0 1 -4.34326,4.349521 4.3495259,4.349525 0 0 1 -4.35578,-4.336977 4.3495259,4.349525 0 0 1 4.3307,-4.362028 4.3495259,4.349525 0 0 1 4.36827,4.324397" />
      <path
         style="fill:#000000;fill-opacity:1;stroke:none;stroke-width:0.0710698;stroke-linecap:square;stroke-miterlimit:3.6"
         id="path20-9-3"
         sodipodi:type="arc"
         sodipodi:cx="145.05775"
         sodipodi:cy="68.273743"
         sodipodi:rx="1.5282118"
         sodipodi:ry="1.7633204"
         sodipodi:start="0"
         sodipodi:end="6.2774175"
         sodipodi:open="true"
         sodipodi:arc-type="arc"
         d="m 146.58597,68.273743 a 1.5282118,1.7633204 0 0 1 -1.52601,1.763318 1.5282118,1.7633204 0 0 1 -1.53041,-1.758233 1.5282118,1.7633204 0 0 1 1.52159,-1.768389 1.5282118,1.7633204 0 0 1 1.5348,1.753133"
         inkscape:transform-center-x="-0.43662501"
         inkscape:transform-center-y="0.8816581" />
    </g>
    <g
       id="g41"
       transform="matrix(49.587392,0,0,49.587392,-393.7937,-371.45314)">
      <path
         style="fill:#ffffff;fill-opacity:1;stroke:none;stroke-width:0.208794;stroke-linecap:square;stroke-miterlimit:3.6"
         d="m 146.82658,132.67849 c 4.26729,-0.51503 15.94729,5.10008 18.64235,2.36419 2.97686,-3.02201 -8.21408,-12.08863 -5.947,-15.02951 1.58741,-2.05921 12.44286,5.65631 10.11853,2.28633 -7.07832,-10.26264 -7.66475,-19.93861 -11.68481,-26.938691 -4.7712,-8.308018 -17.13083,-9.990273 -26.01095,-9.661293 -8.88015,0.328979 -14.24431,3.983827 -18.47337,9.18844 -4.22905,5.204614 -6.92367,12.493764 -4.66543,20.037774 2.25826,7.54399 5.49914,15.08399 12.65285,18.81707 6.51005,3.39719 19.02148,7.72801 23.93693,7.07628 2.82935,-0.37514 -2.3688,-7.682 1.4309,-8.14059 z"
         id="path3-0"
         sodipodi:nodetypes="ssssszzzsss"
         inkscape:label="ghost" />
      <path
         style="fill:#000000;fill-opacity:1;stroke:none;stroke-width:0.283674;stroke-linecap:square;stroke-miterlimit:3.6;stroke-opacity:1"
         d="m 114.0987,108.41035 c 0,0 1.932,-8.542247 5.49148,-8.574607 2.53906,-0.0231 -3.11681,2.546117 1.48169,2.648167 0.86722,0.0192 -0.5343,-3.511353 0.5017,-3.07396 6.50782,2.74756 3.77587,8.21109 3.77587,8.21109 0,0 -1.38547,-2.90793 -2.79642,-3.52829 -0.27127,-0.11926 -0.87618,4.03802 -1.15628,3.63884 0,0 -0.91093,-3.84094 -1.25869,-3.75756 -2.95881,0.70943 -6.03935,4.43632 -6.03935,4.43632 z"
         id="path40"
         sodipodi:nodetypes="cssscscsc" />
      <path
         style="fill:#000000;fill-opacity:1;stroke:none;stroke-width:0.283674;stroke-linecap:square;stroke-miterlimit:3.6;stroke-opacity:1"
         d="m 144.28104,107.5429 c 0,0 -2.08817,-8.019033 -7.24094,-8.529697 -1.16713,-0.115671 2.37639,3.517967 -0.5531,3.249847 -3.12153,-0.28572 0.31101,-3.380553 -2.16661,-2.974618 -6.9711,1.142158 -1.31499,8.503978 -1.31499,8.503978 0,0 0.68429,-2.95044 2.03213,-3.6981 0.15739,-0.0873 1.97025,2.61129 2.3312,3.03048 0.61116,-0.17461 0.23407,-3.18946 0.70783,-3.03237 2.66895,0.88498 6.20448,3.45048 6.20448,3.45048 z"
         id="path40-8"
         sodipodi:nodetypes="cssscscsc" />
      <path
         style="fill:#000000;fill-opacity:1;stroke:none;stroke-width:0.462332;stroke-linecap:square;stroke-miterlimit:3.6;stroke-opacity:1"
         d="m 113.48644,114.38897 c 0,0 1.58325,1.32257 4.51347,0.001 2.93023,-1.32141 3.59843,2.97367 3.59843,2.97367 0,0 1.68282,-3.53072 3.42507,-3.215 1.74226,0.31573 1.10416,4.53702 1.10416,4.53702 0,0 1.30469,-5.56118 3.57659,-5.45813 2.27189,0.10303 3.39056,6.3497 3.39056,6.3497 0,0 0.9204,-7.91553 2.99794,-7.68277 2.07755,0.23276 1.57378,6.39519 1.57378,6.39519 0,0 2.3961,-4.97207 4.58703,-3.60841 2.19093,1.36366 4.02548,-0.52051 4.02548,-0.52051 -0.151,0.0579 -2.03996,7.73719 -3.74853,7.93837 -0.95652,0.11267 -2.12551,-3.30814 -2.24638,-3.31995 0,0 -0.33139,6.50945 -4.17844,6.80276 -1.12028,0.0854 -2.90586,-3.4993 -2.90586,-3.4993 0,0 -0.68663,3.97789 -4.0243,3.82332 -3.89798,-0.57919 -3.50564,-5.20941 -3.50564,-5.20941 -0.22092,0.0209 -0.59757,4.60985 -3.61319,3.76084 -2.36664,-0.6663 -2.66103,-6.4634 -2.66103,-6.4634 0,0 -0.53945,3.41892 -3.17801,1.98969 -1.2283,-0.66533 -2.87977,-7.23005 -2.73113,-5.59498 z"
         id="path41"
         sodipodi:nodetypes="czczczczczcscscccscscc" />
    </g>
  </g>
</svg>
