<?xml version="1.0" encoding="UTF-8" standalone="no"?>
<svg
   viewBox="0 0 448 512"
   version="1.1"
   id="svg1"
   sodipodi:docname="linkedin-mid.svg"
   inkscape:version="1.3.2 (091e20e, 2023-11-25)"
   xmlns:inkscape="http://www.inkscape.org/namespaces/inkscape"
   xmlns:sodipodi="http://sodipodi.sourceforge.net/DTD/sodipodi-0.dtd"
   xmlns="http://www.w3.org/2000/svg"
   xmlns:svg="http://www.w3.org/2000/svg">
  <defs
     id="defs1" />
  <sodipodi:namedview
     id="namedview1"
     pagecolor="#ffffff"
     bordercolor="#000000"
     borderopacity="0.25"
     inkscape:showpageshadow="2"
     inkscape:pageopacity="0.0"
     inkscape:pagecheckerboard="0"
     inkscape:deskcolor="#d1d1d1"
     inkscape:zoom="1.9308036"
     inkscape:cx="224"
     inkscape:cy="256.11098"
     inkscape:window-width="1392"
     inkscape:window-height="1212"
     inkscape:window-x="0"
     inkscape:window-y="25"
     inkscape:window-maximized="0"
     inkscape:current-layer="svg1" />
  <!--!Font Awesome Free 6.5.2 by @fontawesome - https://fontawesome.com License - https://fontawesome.com/license/free Copyright 2024 Fonticons, Inc.-->
  <path
     d="M416 32H31.9C14.3 32 0 46.5 0 64.3v383.4C0 465.5 14.3 480 31.9 480H416c17.6 0 32-14.5 32-32.3V64.3c0-17.8-14.4-32.3-32-32.3zM135.4 416H69V202.2h66.5V416zm-33.2-243c-21.3 0-38.5-17.3-38.5-38.5S80.9 96 102.2 96c21.2 0 38.5 17.3 38.5 38.5 0 21.3-17.2 38.5-38.5 38.5zm282.1 243h-66.4V312c0-24.8-.5-56.7-34.5-56.7-34.6 0-39.9 27-39.9 54.9V416h-66.4V202.2h63.7v29.2h.9c8.9-16.8 30.6-34.5 62.9-34.5 67.2 0 79.7 44.3 79.7 101.9V416z"
     id="path1" />
  <path
     style="fill:#666666;stroke-width:3.91498;stroke-linecap:round;stroke-linejoin:round"
     d="M 25.636994,479.04664 C 13.929559,476.53218 4.3344199,467.13568 1.2802957,455.19417 0.27259122,451.25408 0.25907959,448.59756 0.26795248,256.15762 0.27791154,40.160971 -0.01591016,57.6561 3.7294903,50.046056 6.3195781,44.783419 12.439179,38.547593 17.662653,35.848273 24.959336,32.077586 6.6166477,32.386087 224.02066,32.377598 c 173.44721,-0.0068 196.40897,0.08282 199.13989,0.777008 11.66987,2.966434 21.37454,12.912695 23.80857,24.401277 1.14202,5.390315 1.13752,391.200397 -0.005,396.659147 -2.55562,12.21427 -12.64618,22.30483 -24.86045,24.86045 -5.32627,1.11443 -391.274676,1.08635 -396.467056,-0.0288 z M 135.95376,308.93873 V 201.72948 H 102.28902 68.624277 v 107.20925 107.20925 h 33.664743 33.66474 z m 107.8891,47.00115 c 0.22599,-62.63777 0.2081,-62.09701 2.3595,-71.34335 3.38642,-14.5542 11.61188,-23.79971 24.41881,-27.44699 5.60103,-1.59511 15.00131,-1.96492 20.72208,-0.81522 14.8047,2.9753 22.41866,12.90964 25.43198,33.18244 0.43928,2.95535 0.67467,21.70358 0.82098,65.38729 l 0.20511,61.24393 h 33.3768 33.37679 l -0.002,-63.57457 c -0.002,-63.15557 -0.22969,-73.8092 -1.84718,-86.36301 -6.12254,-47.51866 -30.29928,-69.32602 -76.87469,-69.34079 -11.56886,-0.004 -17.08845,0.76831 -26.02309,3.63964 -9.28267,2.98317 -17.46422,7.6062 -25.31756,14.3058 -3.37865,2.88229 -9.41823,10.12754 -11.49127,13.78526 l -1.649,2.90952 -0.13743,-14.89018 -0.13742,-14.89017 H 208.9724 176.86936 v 107.20925 107.20925 h 33.37814 33.37813 z M 112.38844,171.94103 c 13.15428,-3.58356 23.71804,-14.25928 27.26309,-27.55207 1.42653,-5.349 1.52204,-13.95611 0.21142,-19.05254 -3.67911,-14.30655 -14.25427,-24.8775 -28.51035,-28.499008 -5.13873,-1.305405 -13.754661,-1.215443 -19.052543,0.198937 -11.310772,3.019651 -21.64722,12.034281 -25.955069,22.635961 -4.63277,11.40132 -3.572512,24.42935 2.872509,35.29619 2.231957,3.76328 8.739744,10.27106 12.503017,12.50302 3.91884,2.32422 8.541407,4.14903 12.725308,5.02344 4.321159,0.90309 13.651638,0.61504 17.942618,-0.55393 z"
     id="path2" />
</svg>
