<?xml version="1.0" encoding="UTF-8" standalone="no"?>
<svg
   viewBox="0 0 640 512"
   version="1.1"
   id="svg1"
   sodipodi:docname="network.svg"
   inkscape:version="1.3.2 (091e20e, 2023-11-25)"
   xmlns:inkscape="http://www.inkscape.org/namespaces/inkscape"
   xmlns:sodipodi="http://sodipodi.sourceforge.net/DTD/sodipodi-0.dtd"
   xmlns="http://www.w3.org/2000/svg"
   xmlns:svg="http://www.w3.org/2000/svg">
  <defs
     id="defs1" />
  <sodipodi:namedview
     id="namedview1"
     pagecolor="#ffffff"
     bordercolor="#000000"
     borderopacity="0.25"
     inkscape:showpageshadow="2"
     inkscape:pageopacity="0.0"
     inkscape:pagecheckerboard="0"
     inkscape:deskcolor="#d1d1d1"
     inkscape:zoom="0.4609375"
     inkscape:cx="320"
     inkscape:cy="256"
     inkscape:window-width="1312"
     inkscape:window-height="449"
     inkscape:window-x="0"
     inkscape:window-y="25"
     inkscape:window-maximized="0"
     inkscape:current-layer="svg1" />
  <!--!Font Awesome Free 6.5.2 by @fontawesome - https://fontawesome.com License - https://fontawesome.com/license/free Copyright 2024 Fonticons, Inc.-->
  <path
     d="M256 64H384v64H256V64zM240 0c-26.5 0-48 21.5-48 48v96c0 26.5 21.5 48 48 48h48v32H32c-17.7 0-32 14.3-32 32s14.3 32 32 32h96v32H80c-26.5 0-48 21.5-48 48v96c0 26.5 21.5 48 48 48H240c26.5 0 48-21.5 48-48V368c0-26.5-21.5-48-48-48H192V288H448v32H400c-26.5 0-48 21.5-48 48v96c0 26.5 21.5 48 48 48H560c26.5 0 48-21.5 48-48V368c0-26.5-21.5-48-48-48H512V288h96c17.7 0 32-14.3 32-32s-14.3-32-32-32H352V192h48c26.5 0 48-21.5 48-48V48c0-26.5-21.5-48-48-48H240zM96 448V384H224v64H96zm320-64H544v64H416V384z"
     id="path1" />
  <path
     style="fill:#808080;stroke-width:36.8984;stroke-linecap:round;stroke-linejoin:round"
     d="m 72.677966,509.96886 c -17.000385,-3.43034 -32.428286,-16.84381 -36.9235,-32.10238 -1.584502,-5.37845 -2.174117,-28.31686 -1.724983,-67.10864 l 0.682381,-58.93711 6.521902,-9.40188 c 4.268624,-6.15361 10.586782,-11.46316 18.287327,-15.368 11.08498,-5.62107 13.436785,-5.9661 40.664537,-5.9661 h 28.89912 v -17.35594 -17.35593 l -52.610174,-0.008 c -48.320191,-0.007 -53.175502,-0.35281 -59.54314,-4.23541 -19.9122821,-12.14128 -20.3639927,-38.56269 -0.881791,-51.57765 l 7.371678,-4.92459 H 156.52422 289.62712 V 208.2713 190.91536 l -27.66102,-0.0121 c -15.21356,-0.007 -31.07796,-0.96285 -35.25424,-2.12489 -10.27761,-2.85973 -22.95906,-13.71013 -28.80872,-24.64913 -4.63707,-8.6714 -4.81839,-11.21693 -4.81839,-67.642407 0,-58.617741 10e-4,-58.634526 5.54227,-69.403878 7.01766,-13.639501 18.85526,-22.0402262 35.29812,-25.0498134 7.97358,-1.45942824 42.82364,-2.06118195 94.43701,-1.630638 l 81.80003,0.6823522 10.47613,5.4237288 c 13.69426,7.0898204 22.34084,19.2804404 25.38984,35.7966104 1.49187,8.081382 2.08334,31.93662 1.55993,62.915255 -0.94685,56.04057 -2.21351,61.2458 -18.08785,74.33078 -11.21369,9.24326 -20.86576,11.36413 -51.71804,11.36413 h -27.40931 v 17.35594 17.35593 h 133.10291 133.10288 l 7.37169,4.92459 c 19.48219,13.01496 19.03048,39.43637 -0.88179,51.57765 -6.36765,3.8826 -11.22295,4.22797 -59.54315,4.23541 l -52.61017,0.008 v 17.35593 17.35594 h 28.89913 c 27.22775,0 29.57954,0.34503 40.66454,5.9661 7.70054,3.90484 14.01869,9.21439 18.28731,15.368 l 6.52191,9.40188 0.68237,58.93711 c 0.44915,38.79178 -0.14048,61.73019 -1.72497,67.10864 -3.06499,10.40382 -13.40075,22.20299 -24.7859,28.29522 -8.61776,4.61143 -11.3273,4.77395 -90.61924,5.4359 -51.74409,0.43197 -86.33898,-0.16857 -94.28057,-1.63666 -16.13128,-2.98201 -27.22027,-10.42966 -34.84668,-23.40389 l -6.08603,-10.35366 -0.72541,-53.15254 c -0.85131,-62.37614 0.55881,-72.12449 12.32019,-85.16988 12.8461,-14.24853 20.7334,-16.69339 54.03234,-16.74858 L 448,321.08475 V 303.72881 286.37288 H 320 192 v 17.35593 17.35594 l 28.74576,0.0476 c 33.29894,0.0552 41.18624,2.50005 54.03234,16.74858 11.76138,13.04539 13.1715,22.79374 12.32019,85.16988 l -0.72541,53.15254 -6.08603,10.35366 c -7.48368,12.7314 -18.56417,20.3367 -33.85398,23.23636 -13.01164,2.4676 -161.651395,2.61769 -173.754904,0.17545 z M 224.54237,416.54237 V 384 H 159.45763 94.372881 v 32.54237 32.54238 h 65.084749 65.08474 z m 321.08475,0 V 384 h -65.08475 -65.08474 v 32.54237 32.54238 h 65.08474 65.08475 z M 385.08475,95.457627 V 62.915254 H 320 254.91525 V 95.457627 128 H 320 385.08475 Z"
     id="path2" />
</svg>
