<?xml version="1.0" encoding="UTF-8" standalone="no"?>
<svg
   viewBox="0 0 512 512"
   version="1.1"
   id="svg1"
   sodipodi:docname="speech.svg"
   inkscape:version="1.3.2 (091e20e, 2023-11-25)"
   xmlns:inkscape="http://www.inkscape.org/namespaces/inkscape"
   xmlns:sodipodi="http://sodipodi.sourceforge.net/DTD/sodipodi-0.dtd"
   xmlns="http://www.w3.org/2000/svg"
   xmlns:svg="http://www.w3.org/2000/svg">
  <defs
     id="defs1" />
  <sodipodi:namedview
     id="namedview1"
     pagecolor="#ffffff"
     bordercolor="#000000"
     borderopacity="0.25"
     inkscape:showpageshadow="2"
     inkscape:pageopacity="0.0"
     inkscape:pagecheckerboard="0"
     inkscape:deskcolor="#d1d1d1"
     inkscape:zoom="0.4609375"
     inkscape:cx="254.91525"
     inkscape:cy="254.91525"
     inkscape:window-width="1312"
     inkscape:window-height="794"
     inkscape:window-x="0"
     inkscape:window-y="25"
     inkscape:window-maximized="0"
     inkscape:current-layer="svg1" />
  <!--!Font Awesome Free 6.5.2 by @fontawesome - https://fontawesome.com License - https://fontawesome.com/license/free Copyright 2024 Fonticons, Inc.-->
  <path
     d="M168.2 384.9c-15-5.4-31.7-3.1-44.6 6.4c-8.2 6-22.3 14.8-39.4 22.7c5.6-14.7 9.9-31.3 11.3-49.4c1-12.9-3.3-25.7-11.8-35.5C60.4 302.8 48 272 48 240c0-79.5 83.3-160 208-160s208 80.5 208 160s-83.3 160-208 160c-31.6 0-61.3-5.5-87.8-15.1zM26.3 423.8c-1.6 2.7-3.3 5.4-5.1 8.1l-.3 .5c-1.6 2.3-3.2 4.6-4.8 6.9c-3.5 4.7-7.3 9.3-11.3 13.5c-4.6 4.6-5.9 11.4-3.4 17.4c2.5 6 8.3 9.9 14.8 9.9c5.1 0 10.2-.3 15.3-.8l.7-.1c4.4-.5 8.8-1.1 13.2-1.9c.8-.1 1.6-.3 2.4-.5c17.8-3.5 34.9-9.5 50.1-16.1c22.9-10 42.4-21.9 54.3-30.6c31.8 11.5 67 17.9 104.1 17.9c141.4 0 256-93.1 256-208S397.4 32 256 32S0 125.1 0 240c0 45.1 17.7 86.8 47.7 120.9c-1.9 24.5-11.4 46.3-21.4 62.9zM144 272a32 32 0 1 0 0-64 32 32 0 1 0 0 64zm144-32a32 32 0 1 0 -64 0 32 32 0 1 0 64 0zm80 32a32 32 0 1 0 0-64 32 32 0 1 0 0 64z"
     id="path1"
     style="fill:#808080" />
  <path
     style="display:inline;fill:#808080;stroke-width:36.8984;stroke-linecap:round;stroke-linejoin:round"
     d="m 6.4098614,474.1325 c -2.9288135,-2.92881 -5.3251156,-7.08272 -5.3251156,-9.23092 0,-2.14821 5.4255533,-11.11791 12.0567852,-19.93271 18.304047,-24.33126 31.286488,-52.30307 34.633146,-74.6202 1.347514,-8.98586 0.829234,-10.25753 -9.981098,-24.48961 C 0.02044702,296.12969 -8.6262389,235.00323 13.863134,176.68634 31.230056,131.65241 72.957095,88.739849 124.37372,63.035989 c 19.40698,-9.701808 54.30132,-20.983575 78.47374,-25.371521 27.72254,-5.032388 78.58254,-5.032388 106.30508,0 157.15448,28.527777 243.71285,164.167672 180.88663,283.455462 -41.7569,79.2836 -140.46596,129.71058 -244.88663,125.10395 -31.49455,-1.38943 -45.1691,-3.5264 -73.95523,-11.55727 l -19.71795,-5.50099 -11.73968,7.50098 C 109.44675,456.02204 72.716748,471.02855 42.914946,476.22554 17.44233,480.6676 12.6714,480.39404 6.4098614,474.1325 Z M 99.79661,407.12229 c 7.15932,-3.93361 18.2975,-10.50127 24.7515,-14.59478 10.33713,-6.55644 13.43739,-7.43803 26.0339,-7.40298 8.92848,0.0249 21.91823,2.22874 34.58379,5.86761 115.26803,33.11694 239.66752,-17.655 273.16016,-111.48657 7.87041,-22.04947 8.25101,-54.38896 0.90216,-76.65811 C 451.62407,179.80498 438.46279,159.35001 418.74668,139.9322 330.78853,53.30473 157.24239,60.113341 80.456804,153.20409 36.942405,205.95862 36.017831,269.07355 77.949835,324.33898 c 14.185055,18.69557 17.40634,27.96379 15.629086,44.96764 -1.219822,11.67063 -6.017271,33.33827 -9.242183,41.74227 -1.837944,4.78959 0.828869,4.11228 15.459872,-3.9266 z"
     id="path2" />
</svg>
